# xmcd
#
# Track frame offsets: 
#        150
#        16509
#        37091
#        47083
#        65875
#        80744
#        104714
#        116144
#        134590
#        147860
#        161004
#        177106
#        190851
#        209692
#
# Disc length: 2986 seconds
#
# Revision: 2
# Processed by: cddbd v1.5.2PL0 Copyright (c) Steve Scherf et al.
# Submitted via: ExactAudioCopy v1.0b3
#
DISCID=d60ba80e
DTITLE=Guy Davis - Chocolate to the Bone
DYEAR=2003
DGENRE=Blues
TTITLE0=Limetown
TTITLE1=Tell Me Where the Road Is
TTITLE2=Step It Up and Go
TTITLE3=I Believe I'll Lose My Mind
TTITLE4=Right on Time
TTITLE5=Set a Place for Me
TTITLE6=Shortnin' Bread
TTITLE7=Drifting Blues
TTITLE8=Sho' Nuff Satisfied
TTITLE9=Matchbox Blues
TTITLE10=Honey Babe
TTITLE11=Back Door Man
TTITLE12=Railroad Story
TTITLE13=Saturday Blues
EXTD=YEAR: 2003
EXTT0=
EXTT1=
EXTT2=
EXTT3=
EXTT4=
EXTT5=
EXTT6=
EXTT7=
EXTT8=
EXTT9=
EXTT10=
EXTT11=
EXTT12=
EXTT13=
PLAYORDER=
